<svg xmlns="http://www.w3.org/2000/svg" aria-hidden="true" style="position:absolute;width:0;height:0;overflow:hidden">
  <defs>
    <symbol id="icon-logo-icon" viewBox="0 0 32 32">
      <path d="M15.644.169c-.669.631-1.275 1.806-1.563 3.019-.156.663-.15 2 .006 2.594.231.869.419 1.156.731 1.156.512 0 .606-.275.35-1.031-.313-.938-.3-2.081.025-3.05.137-.394.544-1.225.713-1.444.094-.125.094-.125.188 0 .169.219.575 1.05.712 1.444.325.962.331 2.1.019 3.05-.25.756-.156 1.031.356 1.031.225 0 .337-.106.5-.463.256-.588.35-1.1.35-1.975-.006-.9-.087-1.4-.381-2.219C17.256 1.181 16.4 0 16 0c-.106 0-.25.069-.356.169z"/>
      <path d="M10.581 6.094c-.081.056-.175.219-.213.362-.1.369-.088 1.544.025 2.119.394 1.95 1.8 3.4 3.813 3.925.613.162.919.031.919-.387 0-.281-.162-.406-.8-.606-.819-.256-1.456-.644-1.963-1.188-.681-.731-1-1.531-1.088-2.725l-.044-.55.269.044c1.412.225 3.025 1.356 3.625 2.537.387.756.394.825.425 2.775l.025 1.813-.463-.469c-1.05-1.081-2.575-1.819-3.931-1.912-.5-.031-.544-.025-.669.106-.169.181-.225.506-.219 1.313.019 1.738.662 3.088 1.969 4.1.613.481 1.594.913 2.237 1 .269.038.319.025.463-.119a.499.499 0 0 0 .075-.644c-.056-.081-.25-.169-.519-.244-1.925-.512-3.069-1.863-3.237-3.838-.063-.7-.063-.706.419-.594 1.425.331 2.75 1.275 3.387 2.419.412.738.475 1.15.475 3.094v1.712l-.406-.438c-.463-.5-1.325-1.113-2.013-1.431a7.671 7.671 0 0 0-1.988-.544c-.713-.075-.856.156-.856 1.369 0 1.4.356 2.438 1.156 3.413.631.756 1.656 1.4 2.688 1.681.531.15.794.113.919-.131.194-.35-.044-.681-.569-.806-.188-.038-.606-.2-.931-.356-.494-.238-.681-.369-1.1-.794-.769-.762-1.094-1.538-1.188-2.806-.05-.619-.081-.594.506-.456 1.644.394 3.119 1.656 3.613 3.1.137.4.137.456.169 5.113l.031 4.713.15.119c.181.15.331.15.513 0l.15-.119.031-4.744.031-4.738.163-.419a4.234 4.234 0 0 1 1.012-1.556c.712-.712 1.65-1.244 2.575-1.469.587-.137.556-.163.506.456-.094 1.269-.419 2.044-1.188 2.806-.419.425-.606.556-1.1.794-.325.156-.744.319-.931.356-.394.094-.631.294-.631.531s.094.375.306.462c.387.163 1.75-.363 2.594-1 1.262-.962 1.919-2.381 1.925-4.15 0-1.219-.144-1.444-.856-1.369a7.682 7.682 0 0 0-1.988.544c-.688.319-1.55.931-2.012 1.431l-.406.438v-1.712c0-1.531.012-1.769.131-2.212.188-.713.488-1.219 1.113-1.844.762-.762 1.587-1.219 2.619-1.456.481-.113.481-.106.419.594-.169 1.975-1.313 3.325-3.238 3.837-.269.075-.462.163-.519.244a.5.5 0 0 0 .075.644c.144.144.194.156.462.119.644-.087 1.625-.519 2.238-1 1.306-1.012 1.956-2.369 1.962-4.1.006-.813-.044-1.131-.212-1.313-.125-.131-.169-.137-.669-.106-1.356.094-2.881.831-3.931 1.912l-.462.469.025-1.813c.031-1.95.038-2.019.425-2.775.35-.694 1.175-1.494 2.012-1.963.431-.237 1.181-.506 1.613-.575l.269-.044-.044.55c-.087 1.194-.406 1.994-1.087 2.725-.506.544-1.144.931-1.962 1.188-.637.2-.8.325-.8.606 0 .419.306.55.919.387 1.331-.344 2.419-1.106 3.094-2.156.556-.869.813-1.775.813-2.938.006-.813-.081-1.175-.3-1.325-.144-.094-.225-.094-.719-.025a6.699 6.699 0 0 0-2.837 1.087c-.481.325-1.256 1.1-1.563 1.556-.131.2-.256.363-.281.363s-.15-.162-.281-.363c-.306-.456-1.081-1.231-1.563-1.556a6.61 6.61 0 0 0-2.588-1.05c-.662-.119-.819-.119-.988 0z"/>
    </symbol>
    <symbol id="icon-google-icon" viewBox="0 0 32 32">
      <path d="M16.319 13.713V19.2h9.075c-.369 2.356-2.744 6.9-9.075 6.9C10.856 26.1 6.4 21.575 6.4 16s4.456-10.1 9.919-10.1c3.106 0 5.188 1.325 6.375 2.469l4.344-4.181C24.25 1.576 20.638 0 16.319 0c-8.844 0-16 7.156-16 16s7.156 16 16 16c9.231 0 15.363-6.494 15.363-15.631 0-1.05-.113-1.85-.25-2.65l-15.113-.006z"/>
    </symbol>
  </defs>
</svg>
